<svg width="880" height="560" viewBox="0 0 880 560" fill="none" xmlns="http://www.w3.org/2000/svg">
  <rect x="24" y="24" width="832" height="512" rx="32" fill="#FFFFFF" stroke="#E5E7EB" stroke-width="2"/>
  <rect x="64" y="72" width="240" height="24" rx="12" fill="#F1F5F9"/>
  <rect x="64" y="120" width="160" height="10" rx="5" fill="#E5E7EB"/>
  <rect x="64" y="140" width="220" height="10" rx="5" fill="#E5E7EB"/>
  <rect x="64" y="188" width="232" height="132" rx="18" fill="#F8FAFC" stroke="#E5E7EB"/>
  <rect x="316" y="188" width="140" height="60" rx="16" fill="#F8FAFC" stroke="#E5E7EB"/>
  <rect x="316" y="260" width="140" height="60" rx="16" fill="#F8FAFC" stroke="#E5E7EB"/>
  <rect x="476" y="188" width="300" height="132" rx="18" fill="#F8FAFC" stroke="#E5E7EB"/>
  <circle cx="720" cy="104" r="24" fill="#E2E8F0"/>
  <path d="M140 352H740" stroke="#E5E7EB" stroke-width="2"/>
  <rect x="64" y="384" width="180" height="10" rx="5" fill="#E5E7EB"/>
  <rect x="64" y="404" width="260" height="10" rx="5" fill="#E5E7EB"/>
  <rect x="64" y="424" width="200" height="10" rx="5" fill="#E5E7EB"/>
</svg>
